<svg id="icon" viewBox="0 0 20 20" fill="currentColor" xmlns="http://www.w3.org/2000/svg">
<path d="M20.4457 15.1487C21.111 16.2502 20.2759 17.6271 18.9471 17.6271H1.6496C0.318203 17.6271 -0.513066 16.2481 0.150954 15.1487L8.7998 0.825755C9.46544 -0.27625 11.1326 -0.274253 11.7971 0.825755L20.4457 15.1487ZM10.2984 12.1875C9.38272 12.1875 8.64037 12.8965 8.64037 13.7712C8.64037 14.6458 9.38272 15.3549 10.2984 15.3549C11.2142 15.3549 11.9565 14.6458 11.9565 13.7712C11.9565 12.8965 11.2142 12.1875 10.2984 12.1875ZM8.72425 6.49497L8.99163 11.1772C9.00414 11.3963 9.1938 11.5678 9.42352 11.5678H11.1734C11.4031 11.5678 11.5927 11.3963 11.6052 11.1772L11.8726 6.49497C11.8861 6.25831 11.6889 6.05932 11.4407 6.05932H9.1561C8.90797 6.05932 8.71073 6.25831 8.72425 6.49497Z"/>\
</svg>
